<svg width="12" height="12" viewBox="0 0 12 12" fill="none" xmlns="http://www.w3.org/2000/svg">
<path d="M1.79993 10.2V3.60005H3.59993V1.80005H8.09993V5.40005H10.1999V10.2H6.59993V8.40005H5.39993V10.2H1.79993ZM2.69993 9.30005H3.59993V8.40005H2.69993V9.30005ZM2.69993 7.35005H3.59993V6.45005H2.69993V7.35005ZM2.69993 5.40005H3.59993V4.50005H2.69993V5.40005ZM4.49993 7.35005H5.39993V6.45005H4.49993V7.35005ZM4.49993 5.40005H5.39993V4.50005H4.49993V5.40005ZM4.49993 3.60005H5.39993V2.70005H4.49993V3.60005ZM6.29993 7.35005H7.19993V6.45005H6.29993V7.35005ZM6.29993 5.40005H7.19993V4.50005H6.29993V5.40005ZM6.29993 3.60005H7.19993V2.70005H6.29993V3.60005ZM8.39993 9.30005H9.29993V8.40005H8.39993V9.30005ZM8.39993 7.35005H9.29993V6.45005H8.39993V7.35005Z" fill="#6D28D9"/>
</svg>
